# xmcd
#
# Track frame offsets:
#	150
#	19967
#	40117
#	65370
#	80420
#	102347
#	121572
#	137602
#	161965
#	185332
#
# Disc length: 2792 seconds
#
# Revision: 4
# Processed by: cddbd v1.5.1PL0 Copyright (c) Steve Scherf et al.
# Submitted via: EasyCDDAExtractor 8.2.0.1
#
DISCID=7c0ae60a
DTITLE=Jimbo Akira - PALLETE
DYEAR=1990
DGENRE=Blues
TTITLE0=Burning sand
TTITLE1=Driftin`
TTITLE2=Olivia
TTITLE3=Carneval De Rio Grande
TTITLE4=Caramel Island
TTITLE5=Twilight Walk
TTITLE6=Our Sweet Melody
TTITLE7=Lonely Star
TTITLE8=Captain Banana
TTITLE9=Cobalt Cruise
EXTD=
EXTT0=
EXTT1=
EXTT2=(lyrics:Jeff Day]\n
EXTT3=
EXTT4=
EXTT5=
EXTT6=
EXTT7=
EXTT8=
EXTT9=
PLAYORDER=
